<?xml version="1.0" encoding="UTF-8"?>
<svg id="Calque_1" xmlns="http://www.w3.org/2000/svg" viewBox="0 0 634.63 83.28">
  <defs>
    <style>
      .cls-1 {
        fill: none;
        stroke: #b1ff36;
        stroke-miterlimit: 0;
        stroke-width: .5px;
      }
    </style>
  </defs>
  <path class="cls-1" d="M104.42,26.83l-3.23,8.64h-17.27l5.21-14.11h-13.99c-1.93,0-3.68,1.69-4.76,4.47l-6.63,17.98h29.16c2.27,0,3.57,4.37,2.38,7.65l-4.7,12.62c-1.08,2.88-2.77,4.57-4.76,4.57h-43.32c-2.27,0-3.51-4.37-2.38-7.85l3.28-8.74h17.27l-5.32,14.21h14.1c1.87,0,3.62-1.49,4.64-4.27l5.83-15.8h-29.16c-2.27,0-3.62-4.37-2.38-7.75l5.55-14.9c1.25-3.08,2.77-4.57,4.93-4.57h43.15c2.38,0,3.45,4.47,2.38,7.85Z"/>
  <path class="cls-1" d="M182.79,18.98l-9.17,24.84h-17.27l8.32-22.45h-9.63l-17.44,47.29h-17.27l17.5-47.29h-9.8l-9.68,26.13c-8.15-13.81-10.08-28.41-10.08-28.51h74.52Z"/>
  <path class="cls-1" d="M252.21,18.98l-8.38,22.75c-1.08,2.78-2.83,4.47-4.76,4.47h-25.88l.91-2.38h8.61c1.93,0,3.68-1.69,4.76-4.57l6.63-17.88h-28.26c-1.87,13.91-1.08,42.02,22.71,44.9l-.85,2.38c-34.83-2.09-41.45-49.57-41.45-49.67h65.97Z"/>
  <path class="cls-1" d="M259.06,66.27h15.91c1.93,0,3.68-1.69,4.76-4.57l3.57-9.54h17.27l-4.47,11.92c-1.08,2.78-2.83,4.47-4.76,4.47l-50.46.1,18.4-49.67h17.27l-17.5,47.29Z"/>
  <path class="cls-1" d="M318.74,66.27h15.91c1.93,0,3.68-1.69,4.76-4.57l3.57-9.54h17.27l-4.47,11.92c-1.08,2.78-2.83,4.47-4.76,4.47l-50.46.1,18.4-49.67h17.27l-17.5,47.29Z"/>
  <path class="cls-1" d="M398.98,46.2h-20.16l5.78,15.6c1.02,2.78,2.83,4.47,4.76,4.47h2.21l-.91,2.38h-17.61c-1.98,0-3.74-1.69-4.81-4.57l-4.7-12.62c-1.19-3.28.17-7.65,2.43-7.65h33.86l-.85,2.38ZM427.92,24.05c0,.89-.17,1.79-.45,2.58l-15.52,42.02h-17.27l17.5-47.29h-29.73l.91-2.38h41.73c1.59,0,2.83,2.28,2.83,5.07Z"/>
  <path class="cls-1" d="M432.11,18.98h57.87l-9.17,24.84h-17.27l8.38-22.45h-14.04c-1.93,0-3.74,1.69-4.76,4.47l-15.8,42.82h-17.27l15.35-41.33-3.28-8.34Z"/>
  <path class="cls-1" d="M576.73,52.16h17.27l-4.47,11.92c-1.08,2.78-2.83,4.57-4.76,4.57h-45.02l17.5-47.29h-10.48c-1.93,0-3.74,1.69-4.76,4.47l-3.57,9.64h-17.21l4.47-11.92c1.02-2.88,2.83-4.57,4.76-4.57h44.96l-17.5,47.29h10.53c1.87,0,3.68-1.69,4.7-4.47l3.57-9.64Z"/>
</svg>