<?xml version="1.0" encoding="UTF-8"?>
<svg id="Calque_1" xmlns="http://www.w3.org/2000/svg" viewBox="0 0 179.63 68.28">
  <defs>
    <style>
      .cls-1 {
        fill: #fff;
      }
    </style>
  </defs>
  <path class="cls-1" d="M143.66,61.76c-.39-2.52-.9-4.99-1.58-7.42-2.02-7.2-6.7-11.97-13.49-14.8-4.64-1.93-9.52-2.87-14.5-3.32-10.02-.91-20.07-.59-30.11-.72-8.18-.11-16.35-.16-24.53-.29-7.32-.11-14.63-.27-21.95-.47-7.16-.19-14.31-.46-21.46-.69-.23,0-.47.03-.77-.36,1.38-.09,2.64-.2,3.9-.24,6.5-.19,12.99-.32,19.49-.54,7.43-.25,14.86-.32,22.3-.48,6.31-.14,12.62-.06,18.92-.23,7.98-.22,15.97-.04,23.94-.22,6.77-.16,13.53-.5,20.11-2.31,3.05-.84,5.97-1.99,8.68-3.66,4.95-3.05,8.02-7.47,9.54-13.04.64-2.36,1.09-4.76,1.51-7.18.55,3.85,1.4,7.6,2.92,11.18,1.91,4.52,4.48,8.57,8.51,11.49,3.48,2.52,7.55,3.62,11.67,4.49,1.62.34,3.27.54,4.93.94-1.48.23-2.97.41-4.43.71-4.21.86-8.36,1.93-11.94,4.44-4.96,3.49-7.72,8.53-9.68,14.1-.98,2.8-1.53,5.69-1.99,8.62Z"/>
</svg>